<?xml version="1.0" encoding="UTF-8"?>
<svg xmlns="http://www.w3.org/2000/svg" xmlns:xlink="http://www.w3.org/1999/xlink" width="477px" height="192px" viewBox="0 0 477 192">
  <!-- Generator: Sketch 59.1 (86144) - https://sketch.com -->
  <title>LOGO.LPOTYUK219Bold</title>
  <desc>Created with Sketch.</desc>
  <g id="Page-1" stroke="none" stroke-width="1" fill="none" fill-rule="evenodd">
    <g id="LOGO.LPOTYUK219Bold">
      <g id="Group" opacity="0.72" transform="translate(1.000000, 90.000000)" fill="#000000" fill-rule="nonzero">
        <polygon id="Path" points="0 54.1 0 1.3 6.3 1.3 6.3 48.5 30 48.5 30 54 0 54"></polygon>
        <path d="M77.2,54.1 L70.5,37.4 L48.9,37.4 L42.3,54.1 L36,54.1 L57.3,1.1 L62.6,1.1 L83.8,54.1 L77.2,54.1 Z M68.5,31.8 L62.2,15.4 C61.4,13.3 60.6,10.8 59.7,7.8 C59.2,10.1 58.4,12.7 57.4,15.4 L51.1,31.8 L68.5,31.8 L68.5,31.8 Z" id="Shape"></path>
        <path d="M137.3,54.1 L130.2,54.1 L100.8,9.8 L100.5,9.8 C100.9,15 101.1,19.8 101.1,24.1 L101.1,54.1 L95.3,54.1 L95.3,1.3 L102.4,1.3 L131.7,45.4 L132,45.4 C132,44.7 131.8,42.7 131.7,39.1 C131.5,35.6 131.5,33.1 131.5,31.5 L131.5,1.3 L137.4,1.3 L137.4,54.1 L137.3,54.1 Z" id="Path"></path>
        <path d="M199.2,27.2 C199.2,35.9 196.8,42.6 192,47.2 C187.2,51.8 180.2,54.1 171.2,54.1 L156.3,54.1 L156.3,1.3 L172.8,1.3 C181.2,1.3 187.7,3.6 192.3,8.1 C196.9,12.7 199.2,19 199.2,27.2 Z M192.6,27.4 C192.6,20.5 190.8,15.4 187.3,11.9 C183.8,8.4 178.5,6.7 171.6,6.7 L162.5,6.7 L162.5,48.8 L170.1,48.8 C177.6,48.8 183.2,47 186.9,43.4 C190.7,39.8 192.6,34.4 192.6,27.4 Z" id="Shape"></path>
        <path d="M245.8,40 C245.8,44.6 244.1,48.3 240.6,50.9 C237.2,53.5 232.5,54.8 226.6,54.8 C220.2,54.8 215.3,54 211.9,52.4 L211.9,46.5 C214.1,47.4 216.5,48.1 219.1,48.7 C221.7,49.2 224.3,49.5 226.8,49.5 C231,49.5 234.1,48.7 236.2,47.2 C238.3,45.6 239.4,43.5 239.4,40.7 C239.4,38.9 239,37.4 238.3,36.2 C237.6,35 236.3,34 234.5,33 C232.7,32 230.1,30.9 226.5,29.6 C221.5,27.8 217.9,25.8 215.8,23.4 C213.7,21 212.6,17.9 212.6,14 C212.6,9.9 214.2,6.7 217.3,4.3 C220.4,1.9 224.5,0.7 229.7,0.7 C235.1,0.7 240,1.7 244.5,3.6 L242.6,8.9 C238.2,7.1 233.8,6.2 229.6,6.2 C226.3,6.2 223.7,6.9 221.8,8.3 C219.9,9.7 219,11.7 219,14.1 C219,15.9 219.3,17.4 220,18.6 C220.7,19.8 221.8,20.8 223.5,21.8 C225.1,22.8 227.6,23.8 231,25 C236.6,27 240.5,29.1 242.6,31.3 C244.7,33.5 245.8,36.4 245.8,40 Z" id="Path"></path>
        <path d="M284,6 C278.1,6 273.4,7.9 270,11.8 C266.6,15.7 264.9,21 264.9,27.7 C264.9,34.6 266.5,40 269.8,43.7 C273.1,47.5 277.8,49.4 283.9,49.4 C287.7,49.4 291.9,48.7 296.7,47.4 L296.7,52.8 C293,54.2 288.4,54.8 282.9,54.8 C275,54.8 268.9,52.4 264.6,47.7 C260.3,43 258.1,36.3 258.1,27.6 C258.1,22.2 259.1,17.4 261.2,13.3 C263.3,9.2 266.3,6.1 270.2,3.8 C274.1,1.6 278.7,0.5 284,0.5 C289.6,0.5 294.6,1.5 298.8,3.5 L296.2,8.7 C292.2,7 288.1,6 284,6 Z" id="Path"></path>
        <path d="M346.6,54.1 L339.9,37.4 L318.3,37.4 L311.7,54.1 L305.4,54.1 L326.7,1.1 L332,1.1 L353.2,54.1 L346.6,54.1 Z M338,31.8 L331.7,15.4 C330.9,13.3 330.1,10.8 329.2,7.8 C328.7,10.1 327.9,12.7 326.9,15.4 L320.6,31.8 L338,31.8 L338,31.8 Z" id="Shape"></path>
        <path d="M398.8,16.7 C398.8,22 396.9,26.1 393.2,29 C389.5,31.9 384.2,33.3 377.2,33.3 L370.9,33.3 L370.9,54.1 L364.6,54.1 L364.6,1.3 L378.6,1.3 C392.1,1.3 398.8,6.4 398.8,16.7 Z M370.9,28.1 L376.5,28.1 C382.1,28.1 386.1,27.2 388.6,25.5 C391.1,23.7 392.3,20.9 392.3,17.1 C392.3,13.6 391.1,11 388.8,9.3 C386.5,7.6 382.8,6.7 377.9,6.7 L370.9,6.7 L370.9,28.1 L370.9,28.1 Z" id="Shape"></path>
        <polygon id="Path" points="444.3 54.1 414.2 54.1 414.2 1.3 444.3 1.3 444.3 6.7 420.5 6.7 420.5 23.7 442.9 23.7 442.9 29.1 420.5 29.1 420.5 48.5 444.3 48.5"></polygon>
      </g>
      <line x1="0.8" y1="159.4" x2="445.1" y2="159.4" id="Path" stroke="#000000" stroke-width="0.5471" opacity="0.72"></line>
      <g id="Group" transform="translate(157.000000, 0.000000)" fill-rule="nonzero">
        <path d="M40.7,15.6 C40.7,15.6 52.5,25.9 60.6,31.8 C60.6,31.8 29.8,22.1 0.9,0.1 C1,0.1 21.9,10.1 40.7,15.6 Z" id="Path" fill="#37508C"></path>
        <path d="M52.2,18.8 C52.2,18.8 62.2,27.8 75.3,36.3 C75.3,36.3 88.3,40.3 111.7,43.2 C111.7,43.2 91.2,30.2 85.4,25.7 C85.4,25.7 66.7,22.7 52.2,18.8 Z" id="Path" fill="#B32C30"></path>
        <path d="M104.1,27.8 C104.1,27.8 116.3,36 121.9,39.3 C121.9,39.3 124.9,32.4 126.8,29.4 C126.7,29.4 110.8,28.4 104.1,27.8 Z" id="Path" fill="#37508C"></path>
        <path d="M133.4,29.5 C133.4,29.5 157,30.1 181.6,30 C181.6,30 176.9,36.9 174.2,41.6 C174.2,41.6 143.5,44 135,44 C135,44 127.6,44.2 126.3,43.9 C126.4,43.9 130.3,34.6 133.4,29.5 Z" id="Path" fill="#B32C30"></path>
        <path d="M188.7,30 C188.7,30 183,37.8 181.3,41.4 C181.3,41.4 216.9,40 232.2,42.8 C232.2,42.8 255,42 263.3,42.3 C263.3,42.3 235.7,30.1 188.7,30 Z" id="Path" fill="#37508C"></path>
        <path d="M250.8,46 C250.8,46 264.3,46.1 272.2,46.2 C272.2,46.2 283.7,51.9 289.8,56.9 C289.8,56.9 284.2,56.4 279.7,56.3 C279.7,56.2 264.2,48.7 250.8,46 Z" id="Path" fill="#B32C30"></path>
        <path d="M296.9,63 C296.9,63 302.7,69.1 305.8,73.4 C305.8,73.4 299.5,66.8 293.6,62.8 L296.9,63 Z" id="Path" fill="#37508C"></path>
        <path d="M225.3,67.5 C225.3,67.5 239.4,70.5 245.5,72.1 C245.5,72.1 218.2,74 203.3,75.8 C203.3,75.7 216.4,69.7 225.3,67.5 Z" id="Path" fill="#B32C30"></path>
        <path d="M232.6,65.8 C232.6,65.8 254.1,70.9 257.5,72.2 C257.5,72.2 276.6,72.2 294,78.8 C311.4,85.4 319.1,93.6 319.1,93.6 C319.1,93.6 311.7,79.5 292.8,70 C274,60.5 245.8,62.1 232.6,65.8 Z" id="Path" fill="#37508C"></path>
        <path d="M203.2,59.6 C203.2,59.6 234.1,54 253.8,55.9 C253.8,55.9 273.6,55.9 281.2,56.2 C281.2,56.2 261,46.5 227.8,47.8 C227.8,47.8 217.3,48 207,49.3 C196.7,50.5 180.2,53.4 175.7,53.9 L175,55 C175,54.9 186.6,56.9 203.2,59.6 Z" id="Path" fill="#B32C30"></path>
        <path d="M168.8,54.5 L167.6,57.3 L193.7,61.4 C193.7,61.4 169.5,66.9 154.4,68.9 C139.2,70.9 115.5,70.8 95.1,65.7 C74.6,60.7 54.4,52.6 45.2,46.1 C45.2,46.1 67.7,53.1 84.9,55.6 C102.1,58.1 119.8,58.5 135.9,57.7 C135.8,57.8 159.4,55.7 168.8,54.5 Z" id="Path" fill="#B32C30"></path>
      </g>
      <g id="Group" opacity="0.72" transform="translate(0.000000, 174.000000)" fill="#000000" fill-rule="nonzero">
        <path d="M11.9,5.6 C11.9,7.4 11.3,8.7 10.2,9.7 C9.1,10.6 7.5,11.1 5.5,11.1 L4,11.1 L4,17 L0.5,17 L0.5,0.5 L5.8,0.5 C7.8,0.5 9.3,0.9 10.4,1.8 C11.4,2.6 11.9,3.9 11.9,5.6 Z M4,8.3 L5.2,8.3 C6.3,8.3 7.1,8.1 7.6,7.7 C8.1,7.3 8.4,6.7 8.4,5.8 C8.4,5 8.2,4.4 7.7,4 C7.3,3.6 6.6,3.4 5.6,3.4 L4,3.4 L4,8.3 Z" id="Shape"></path>
        <polygon id="Path" points="33.2 17 29.7 17 29.7 9.8 23.2 9.8 23.2 17 19.7 17 19.7 0.5 23.2 0.5 23.2 7 29.7 7 29.7 0.5 33.2 0.5"></polygon>
        <path d="M57.1,8.7 C57.1,11.4 56.4,13.5 55.1,15 C53.7,16.5 51.8,17.2 49.3,17.2 C46.8,17.2 44.8,16.5 43.5,15 C42.1,13.5 41.5,11.4 41.5,8.7 C41.5,6 42.2,3.9 43.5,2.4 C44.9,1 46.8,0.2 49.4,0.2 C52,0.2 53.9,0.9 55.2,2.4 C56.4,3.9 57.1,6 57.1,8.7 Z M45,8.7 C45,10.5 45.4,11.9 46.1,12.9 C46.8,13.8 47.9,14.3 49.2,14.3 C52,14.3 53.4,12.4 53.4,8.7 C53.4,5 52,3.1 49.2,3.1 C47.8,3.1 46.8,3.6 46,4.5 C45.3,5.5 45,6.9 45,8.7 Z" id="Shape"></path>
        <polygon id="Path" points="71.5 17 68 17 68 3.4 63.5 3.4 63.5 0.5 76 0.5 76 3.4 71.5 3.4"></polygon>
        <path d="M98.2,8.7 C98.2,11.4 97.5,13.5 96.2,15 C94.8,16.5 92.9,17.2 90.4,17.2 C87.9,17.2 85.9,16.5 84.6,15 C83.2,13.5 82.6,11.4 82.6,8.7 C82.6,6 83.3,3.9 84.6,2.4 C86,1 87.9,0.2 90.5,0.2 C93,0.2 95,0.9 96.3,2.4 C97.5,3.9 98.2,6 98.2,8.7 Z M86.1,8.7 C86.1,10.5 86.5,11.9 87.2,12.9 C87.9,13.8 89,14.3 90.3,14.3 C93.1,14.3 94.5,12.4 94.5,8.7 C94.5,5 93.1,3.1 90.3,3.1 C88.9,3.1 87.9,3.6 87.1,4.5 C86.5,5.5 86.1,6.9 86.1,8.7 Z" id="Shape"></path>
        <path d="M112.5,7.7 L119.1,7.7 L119.1,16.3 C118,16.6 117,16.9 116.1,17 C115.2,17.1 114.2,17.2 113.2,17.2 C110.7,17.2 108.8,16.5 107.5,15 C106.2,13.5 105.5,11.4 105.5,8.7 C105.5,6 106.3,3.9 107.8,2.5 C109.3,1 111.4,0.3 114.2,0.3 C115.9,0.3 117.5,0.6 119.1,1.3 L117.9,4.1 C116.7,3.5 115.4,3.2 114.1,3.2 C112.6,3.2 111.4,3.7 110.5,4.7 C109.6,5.7 109.1,7.1 109.1,8.8 C109.1,10.6 109.5,12 110.2,12.9 C110.9,13.8 112,14.3 113.4,14.3 C114.1,14.3 114.9,14.2 115.6,14.1 L115.6,10.6 L112.5,10.6 L112.5,7.7 Z" id="Path"></path>
        <path d="M131.1,10.7 L131.1,17 L127.6,17 L127.6,0.5 L132.4,0.5 C134.6,0.5 136.3,0.9 137.4,1.7 C138.5,2.5 139,3.8 139,5.4 C139,6.4 138.7,7.2 138.2,8 C137.7,8.8 136.9,9.4 135.9,9.8 C138.4,13.5 140,15.9 140.8,17 L136.9,17 L133,10.7 L131.1,10.7 L131.1,10.7 Z M131.1,7.8 L132.2,7.8 C133.3,7.8 134.1,7.6 134.7,7.2 C135.2,6.8 135.5,6.2 135.5,5.5 C135.5,4.7 135.2,4.2 134.7,3.8 C134.2,3.5 133.3,3.3 132.2,3.3 L131.1,3.3 L131.1,7.8 Z" id="Shape"></path>
        <path d="M157.7,17 L156.5,13.1 L150.5,13.1 L149.3,17 L145.5,17 L151.3,0.4 L155.6,0.4 L161.5,17 L157.7,17 Z M155.6,10.1 C154.5,6.5 153.9,4.5 153.7,4.1 C153.6,3.6 153.5,3.3 153.4,3 C153.2,4 152.4,6.3 151.3,10.2 L155.6,10.2 L155.6,10.1 Z" id="Shape"></path>
        <path d="M179.6,5.6 C179.6,7.4 179,8.7 177.9,9.7 C176.8,10.6 175.2,11.1 173.2,11.1 L171.7,11.1 L171.7,17 L168.2,17 L168.2,0.5 L173.5,0.5 C175.5,0.5 177,0.9 178.1,1.8 C179,2.6 179.6,3.9 179.6,5.6 Z M171.7,8.3 L172.9,8.3 C174,8.3 174.8,8.1 175.3,7.7 C175.8,7.3 176.1,6.7 176.1,5.8 C176.1,5 175.9,4.4 175.4,4 C175,3.6 174.3,3.4 173.3,3.4 L171.7,3.4 L171.7,8.3 L171.7,8.3 Z" id="Shape"></path>
        <polygon id="Path" points="200.9 17 197.4 17 197.4 9.8 190.9 9.8 190.9 17 187.4 17 187.4 0.5 190.9 0.5 190.9 7 197.4 7 197.4 0.5 200.9 0.5"></polygon>
        <polygon id="Path" points="219.2 17 209.7 17 209.7 0.5 219.2 0.5 219.2 3.4 213.2 3.4 213.2 7 218.8 7 218.8 9.9 213.2 9.9 213.2 14.2 219.2 14.2"></polygon>
        <path d="M230.8,10.7 L230.8,17 L227.3,17 L227.3,0.5 L232.1,0.5 C234.3,0.5 236,0.9 237.1,1.7 C238.2,2.5 238.7,3.8 238.7,5.4 C238.7,6.4 238.4,7.2 237.9,8 C237.4,8.8 236.6,9.4 235.6,9.8 C238.1,13.5 239.7,15.9 240.5,17 L236.6,17 L232.7,10.7 L230.8,10.7 L230.8,10.7 Z M230.8,7.8 L231.9,7.8 C233,7.8 233.8,7.6 234.4,7.2 C234.9,6.8 235.2,6.2 235.2,5.5 C235.2,4.7 234.9,4.2 234.4,3.8 C233.9,3.5 233,3.3 231.9,3.3 L230.8,3.3 L230.8,7.8 Z" id="Shape"></path>
        <path d="M272.9,8.7 C272.9,11.4 272.2,13.5 270.9,15 C269.5,16.5 267.6,17.2 265.1,17.2 C262.6,17.2 260.6,16.5 259.3,15 C257.9,13.5 257.3,11.4 257.3,8.7 C257.3,6 258,3.9 259.3,2.4 C260.7,1 262.6,0.2 265.2,0.2 C267.8,0.2 269.7,0.9 271,2.4 C272.2,3.9 272.9,6 272.9,8.7 Z M260.8,8.7 C260.8,10.5 261.2,11.9 261.9,12.9 C262.6,13.8 263.7,14.3 265,14.3 C267.8,14.3 269.2,12.4 269.2,8.7 C269.2,5 267.8,3.1 265,3.1 C263.6,3.1 262.6,3.6 261.8,4.5 C261.1,5.5 260.8,6.9 260.8,8.7 Z" id="Shape"></path>
        <polygon id="Path" points="284.4 17 281 17 281 0.5 290.5 0.5 290.5 3.4 284.5 3.4 284.5 7.7 290.1 7.7 290.1 10.6 284.5 10.6 284.5 17"></polygon>
        <polygon id="Path" points="315.3 17 311.8 17 311.8 3.4 307.3 3.4 307.3 0.5 319.8 0.5 319.8 3.4 315.3 3.4"></polygon>
        <polygon id="Path" points="340.5 17 337 17 337 9.8 330.5 9.8 330.5 17 327 17 327 0.5 330.5 0.5 330.5 7 337 7 337 0.5 340.5 0.5"></polygon>
        <polygon id="Path" points="358.8 17 349.3 17 349.3 0.5 358.8 0.5 358.8 3.4 352.8 3.4 352.8 7 358.4 7 358.4 9.9 352.8 9.9 352.8 14.2 358.8 14.2"></polygon>
        <polygon id="Path" points="382.7 7.3 386.1 0.5 389.9 0.5 384.4 10.6 384.4 17 381 17 381 10.7 375.5 0.5 379.3 0.5"></polygon>
        <polygon id="Path" points="406.2 17 396.7 17 396.7 0.5 406.2 0.5 406.2 3.4 400.2 3.4 400.2 7 405.8 7 405.8 9.9 400.2 9.9 400.2 14.2 406.2 14.2"></polygon>
        <path d="M424.4,17 L423.2,13.1 L417.2,13.1 L416,17 L412.2,17 L418,0.4 L422.3,0.4 L428.2,17 L424.4,17 Z M422.3,10.1 C421.2,6.5 420.6,4.5 420.4,4.1 C420.3,3.6 420.2,3.3 420.1,3 C419.9,4 419.1,6.3 418,10.2 L422.3,10.2 L422.3,10.1 Z" id="Shape"></path>
        <path d="M438.4,10.7 L438.4,17 L434.9,17 L434.9,0.5 L439.7,0.5 C441.9,0.5 443.6,0.9 444.7,1.7 C445.8,2.5 446.3,3.8 446.3,5.4 C446.3,6.4 446,7.2 445.5,8 C445,8.8 444.2,9.4 443.2,9.8 C445.7,13.5 447.3,15.9 448.1,17 L444.2,17 L440.3,10.7 L438.4,10.7 L438.4,10.7 Z M438.4,7.8 L439.5,7.8 C440.6,7.8 441.4,7.6 442,7.2 C442.5,6.8 442.8,6.2 442.8,5.5 C442.8,4.7 442.5,4.2 442,3.8 C441.5,3.5 440.6,3.3 439.5,3.3 L438.4,3.3 L438.4,7.8 Z" id="Shape"></path>
      </g>
    </g>
  </g>
</svg>
