<?xml version="1.0" standalone="no"?>
<!DOCTYPE svg PUBLIC "-//W3C//DTD SVG 20010904//EN"
 "http://www.w3.org/TR/2001/REC-SVG-20010904/DTD/svg10.dtd">
<svg version="1.0" xmlns="http://www.w3.org/2000/svg"
 width="700.000000pt" height="700.000000pt" viewBox="0 0 700.000000 700.000000"
 preserveAspectRatio="xMidYMid meet">
<metadata>
Created by potrace 1.14, written by Peter Selinger 2001-2017
</metadata>
<g transform="translate(0.000000,700.000000) scale(0.100000,-0.100000)"
fill="#000000" stroke="none">
<path d="M2896 6123 c-1 -1 -17 -5 -36 -8 -158 -28 -274 -75 -386 -158 -33
-24 -166 -149 -295 -278 -170 -169 -256 -247 -314 -284 -111 -71 -216 -113
-325 -131 -19 -3 -46 -7 -60 -9 -13 -3 -173 -5 -355 -6 -359 -1 -428 -7 -543
-49 -269 -100 -461 -305 -549 -587 l-28 -88 -2 -1435 c-1 -1363 -1 -1439 17
-1520 79 -363 359 -626 730 -686 60 -10 5409 -12 5480 -2 238 33 434 143 583
327 80 99 153 263 175 396 9 52 9 2858 0 2910 -32 192 -120 358 -259 491 -141
133 -289 204 -504 239 -16 2 -181 5 -365 6 -360 1 -415 6 -548 54 -73 26 -139
61 -218 116 -23 16 -149 134 -279 264 -130 129 -264 255 -298 279 -107 76
-263 138 -385 152 -48 6 -1230 13 -1236 7z m-1718 -1329 c215 -89 151 -415
-82 -417 -122 -1 -217 94 -218 218 -2 152 158 259 300 199z m2557 2 c240 -50
364 -95 559 -205 119 -68 314 -239 399 -351 23 -30 44 -57 47 -60 17 -16 95
-147 129 -216 71 -144 126 -315 148 -464 10 -68 10 -354 0 -435 -9 -75 -58
-260 -91 -343 -203 -513 -662 -874 -1221 -957 -85 -13 -348 -14 -420 -1 -290
50 -536 157 -745 324 -56 45 -197 186 -230 230 -14 19 -30 39 -37 46 -26 28
-103 156 -146 241 -111 223 -157 434 -152 705 3 177 4 182 40 337 134 565 605
1019 1177 1132 57 11 117 22 133 25 42 6 373 -1 410 -8z"/>
<path d="M3458 4375 c-2 -1 -34 -5 -73 -9 -394 -35 -757 -310 -903 -686 -28
-71 -60 -192 -67 -255 -8 -60 -7 -250 0 -285 3 -14 8 -43 11 -65 17 -113 80
-268 160 -390 175 -269 442 -437 779 -490 48 -7 228 -7 270 0 161 29 242 54
350 107 370 184 606 562 607 973 0 151 -15 239 -65 380 -51 146 -132 271 -256
396 -206 206 -447 311 -743 323 -37 2 -69 2 -70 1z"/>
</g>
</svg>
